<svg width="600" height="211" viewBox="0 0 600 211" fill="none" xmlns="http://www.w3.org/2000/svg">
<path d="M98.018 135V91.512H75.17V78.456H139.778V91.512H116.642V135H98.018ZM154.064 135C148.432 135 144.4 133.944 141.968 131.832C139.536 129.72 138.32 126.2 138.32 121.272C138.32 116.728 139.568 113.432 142.064 111.384C144.624 109.336 148.624 108.312 154.064 108.312H157.04C160.624 108.312 164.048 108.44 167.312 108.696C170.576 108.952 173.392 109.208 175.76 109.464V107.928C175.76 107.032 175.568 106.168 175.184 105.336C174.8 104.504 173.456 104.088 171.152 104.088H166.352C159.376 104.088 154 104.216 150.224 104.472C146.448 104.664 144.112 104.856 143.216 105.048L142.16 94.872C142.16 94.232 143.28 93.72 145.52 93.336C147.76 92.888 150.832 92.568 154.736 92.376C158.64 92.12 163.088 91.992 168.08 91.992H177.68C181.904 91.992 185.136 92.632 187.376 93.912C189.616 95.128 191.152 96.792 191.984 98.904C192.816 101.016 193.232 103.448 193.232 106.2V135H179.6L175.856 133.08C174.32 133.4 171.856 133.816 168.464 134.328C165.136 134.776 161.296 135 156.944 135H154.064ZM159.632 123.672H172.88C174.288 123.672 175.12 123.544 175.376 123.288C175.632 123.032 175.76 122.232 175.76 120.888V117.528H159.632C158.416 117.528 157.52 117.752 156.944 118.2C156.368 118.648 156.08 119.512 156.08 120.792C156.08 122.008 156.368 122.808 156.944 123.192C157.52 123.512 158.416 123.672 159.632 123.672ZM215.108 135C210.82 135 207.78 134.776 205.988 134.328C204.196 133.88 203.3 133.432 203.3 132.984L207.14 122.904C207.908 123.096 210.18 123.32 213.956 123.576C217.796 123.768 223.364 123.864 230.66 123.864H237.476C239.076 123.864 240.068 123.704 240.452 123.384C240.9 123 241.124 122.36 241.124 121.464C241.124 120.376 240.868 119.704 240.356 119.448C239.908 119.128 238.948 118.968 237.476 118.968H217.988C213.316 118.968 209.7 118.104 207.14 116.376C204.58 114.584 203.3 111.416 203.3 106.872V104.952C203.3 102.584 203.62 100.44 204.26 98.52C204.9 96.536 206.276 94.968 208.388 93.816C210.5 92.6 213.7 91.992 217.988 91.992H246.404C250.244 91.992 252.964 92.216 254.564 92.664C256.164 93.112 256.964 93.56 256.964 94.008L256.004 104.184C254.98 103.992 252.388 103.8 248.228 103.608C244.132 103.352 238.468 103.224 231.236 103.224H224.42C222.82 103.224 221.796 103.416 221.348 103.8C220.964 104.12 220.772 104.696 220.772 105.528C220.772 106.36 220.964 106.968 221.348 107.352C221.796 107.672 222.82 107.832 224.42 107.832H244.292C249.284 107.832 252.964 108.92 255.332 111.096C257.7 113.272 258.884 116.312 258.884 120.216V122.04C258.884 124.344 258.596 126.488 258.02 128.472C257.444 130.392 256.132 131.96 254.084 133.176C252.036 134.392 248.772 135 244.292 135H215.108ZM319.24 135.96C316.104 135.96 313.352 135.64 310.984 135C308.68 134.36 306.472 132.984 304.36 130.872C303.08 129.592 301.8 128.312 300.52 127.032C299.24 125.752 297.96 124.472 296.68 123.192C295.656 122.104 294.824 121.272 294.184 120.696C293.544 120.056 292.904 119.64 292.264 119.448C291.688 119.192 290.856 119.064 289.768 119.064C288.36 119.064 287.528 119.192 287.272 119.448C287.016 119.704 286.888 120.568 286.888 122.04V135H269.416V74.232H286.888V106.776H289.96C291.048 106.776 292.072 106.328 293.032 105.432C293.608 104.856 294.472 103.8 295.624 102.264C296.84 100.728 298.152 99.032 299.56 97.176C300.968 95.32 302.248 93.624 303.4 92.088H323.56L322.024 95.064C320.488 96.984 318.696 99.096 316.648 101.4C314.664 103.704 312.712 105.816 310.792 107.736C308.936 109.656 307.432 111 306.28 111.768C308.776 113.432 311.112 115.224 313.288 117.144C315.464 119 318.248 120.664 321.64 122.136C323.88 123.096 325.768 123.736 327.304 124.056C328.904 124.312 330.024 124.44 330.664 124.44L327.976 135C327.336 135.192 326.248 135.384 324.712 135.576C323.24 135.832 321.416 135.96 319.24 135.96ZM339.328 135V86.232L338.368 78.552H382.912C390.656 78.552 396.448 80.088 400.288 83.16C404.192 86.232 406.144 91.032 406.144 97.56V115.896C406.144 122.552 404.224 127.416 400.384 130.488C396.544 133.496 390.72 135 382.912 135H339.328ZM358.048 121.752H380.031C384.96 121.752 387.456 119.48 387.52 114.936V98.328C387.52 96.472 386.976 94.904 385.888 93.624C384.8 92.28 382.848 91.608 380.031 91.608H358.048V121.752ZM431.363 135C427.139 135 423.971 134.392 421.859 133.176C419.747 131.96 418.339 130.296 417.635 128.184C416.995 126.008 416.675 123.512 416.675 120.696V106.2C416.675 103.512 417.027 101.112 417.731 99C418.435 96.824 419.811 95.128 421.859 93.912C423.971 92.632 427.139 91.992 431.363 91.992H458.051C462.275 91.992 465.411 92.632 467.459 93.912C469.571 95.128 470.947 96.824 471.587 99C472.291 101.112 472.643 103.512 472.643 106.2V120.696C472.643 123.512 472.291 126.008 471.587 128.184C470.947 130.296 469.571 131.96 467.459 133.176C465.411 134.392 462.275 135 458.051 135H431.363ZM439.043 122.904H450.467C453.539 122.904 455.043 121.624 454.979 119.064V107.928C454.979 106.648 454.627 105.688 453.923 105.048C453.283 104.408 452.131 104.088 450.467 104.088H439.139C437.475 104.088 436.291 104.408 435.587 105.048C434.883 105.688 434.531 106.648 434.531 107.928V119.064C434.467 121.624 435.971 122.904 439.043 122.904ZM499.87 135C495.006 135 491.678 133.976 489.886 131.928C488.094 129.88 487.198 126.808 487.198 122.712V104.088H479.326V91.992H483.358C484.446 91.992 485.31 91.8 485.95 91.416C486.654 90.968 487.102 90.2 487.294 89.112L489.118 78.84H504.862V91.992H520.894V104.088H504.862V118.968C504.862 120.568 505.246 121.624 506.014 122.136C506.782 122.648 507.934 122.904 509.47 122.904H519.07L520.99 134.04C519.646 134.232 517.598 134.456 514.846 134.712C512.094 134.904 509.086 135 505.822 135H499.87ZM540.251 135C533.787 135 530.555 132.248 530.555 126.744C530.555 123.672 531.355 121.56 532.955 120.408C534.619 119.192 537.051 118.584 540.251 118.584C543.643 118.584 546.107 119.192 547.643 120.408C549.243 121.56 550.043 123.672 550.043 126.744C550.043 132.248 546.779 135 540.251 135Z" fill="black"/>
</svg>
